HIERARCHY
ROOT hip
{
  OFFSET 0 0 0
  CHANNELS 6 Xposition Yposition Zposition Zrotation Yrotation Xrotation
  JOINT abdomen
  {
    OFFSET 0 20.6881 -0.73152
    CHANNELS 3 Zrotation Xrotation Yrotation
    JOINT chest
    {
      OFFSET 0 11.7043 -0.48768
      CHANNELS 3 Zrotation Xrotation Yrotation
      JOINT neck
      {
        OFFSET 0 22.1894 -2.19456
        CHANNELS 3 Zrotation Xrotation Yrotation
        JOINT head
        {
          OFFSET -0.24384 7.07133 1.2192
          CHANNELS 3 Zrotation Xrotation Yrotation
          JOINT leftEye
          {
            OFFSET 4.14528 8.04674 8.04672
            CHANNELS 3 Zrotation Xrotation Yrotation
            End Site
            {
              OFFSET 1 0 0
            }
          }
          JOINT rightEye
          {
            OFFSET -3.6576 8.04674 8.04672
            CHANNELS 3 Zrotation Xrotation Yrotation
            End Site
            {
              OFFSET 1 0 0
            }
          }
        }
      }
      JOINT rCollar
      {
        OFFSET -2.68224 19.2634 -4.8768
        CHANNELS 3 Zrotation Xrotation Yrotation
        JOINT rShldr
        {
          OFFSET -8.77824 -1.95073 1.46304
          CHANNELS 3 Zrotation Xrotation Yrotation
          JOINT rForeArm
          {
            OFFSET -28.1742 -1.7115 0.48768
            CHANNELS 3 Zrotation Xrotation Yrotation
            JOINT rHand
            {
              OFFSET -22.5879 0.773209 7.07136
              CHANNELS 3 Zrotation Xrotation Yrotation
              JOINT rThumb1
              {
                OFFSET -1.2192 -0.487915 3.41376
                CHANNELS 3 Zrotation Xrotation Yrotation
                JOINT rThumb2
                {
                  OFFSET -3.37035 -0.52449 3.41376
                  CHANNELS 3 Zrotation Xrotation Yrotation
                  End Site
                  {
                    OFFSET -1.78271 -1.18214 1.43049
                  }
                }
              }
              JOINT rIndex1
              {
                OFFSET -7.75947 0.938293 5.60832
                CHANNELS 3 Zrotation Xrotation Yrotation
                JOINT rIndex2
                {
                  OFFSET -2.54057 -0.884171 1.56538
                  CHANNELS 3 Zrotation Xrotation Yrotation
                  End Site
                  {
                    OFFSET -1.62519 -0.234802 1.16502
                  }
                }
              }
              JOINT rMid1
              {
                OFFSET -8.24714 1.18213 3.41376
                CHANNELS 3 Zrotation Xrotation Yrotation
                JOINT rMid2
                {
                  OFFSET -3.10165 -0.590103 1.0647
                  CHANNELS 3 Zrotation Xrotation Yrotation
                  End Site
                  {
                    OFFSET -2.48547 -0.328903 0.83742
                  }
                }
              }
              JOINT rRing1
              {
                OFFSET -8.82822 0.546677 1.51678
                CHANNELS 3 Zrotation Xrotation Yrotation
                JOINT rRing2
                {
                  OFFSET -2.60934 -0.819778 -0.0198488
                  CHANNELS 3 Zrotation Xrotation Yrotation
                  End Site
                  {
                    OFFSET -2.33842 -0.294052 0.168128
                  }
                }
              }
              JOINT rPinky1
              {
                OFFSET -8.27202 -0.0477905 -0.4584
                CHANNELS 3 Zrotation Xrotation Yrotation
                JOINT rPinky2
                {
                  OFFSET -1.82734 -0.647385 -0.700984
                  CHANNELS 3 Zrotation Xrotation Yrotation
                  End Site
                  {
                    OFFSET -1.69225 -0.51767 -0.607171
                  }
                }
              }
            }
          }
        }
      }
      JOINT lCollar
      {
        OFFSET 2.68224 19.2634 -4.8768
        CHANNELS 3 Zrotation Xrotation Yrotation
        JOINT lShldr
        {
          OFFSET 8.77824 -1.95073 1.46304
          CHANNELS 3 Zrotation Xrotation Yrotation
          JOINT lForeArm
          {
            OFFSET 28.1742 -1.7115 0.48768
            CHANNELS 3 Zrotation Xrotation Yrotation
            JOINT lHand
            {
              OFFSET 22.5879 0.773209 7.07136
              CHANNELS 3 Zrotation Xrotation Yrotation
              JOINT lThumb1
              {
                OFFSET 1.2192 -0.487915 3.41376
                CHANNELS 3 Zrotation Xrotation Yrotation
                JOINT lThumb2
                {
                  OFFSET 3.37035 -0.52449 3.41376
                  CHANNELS 3 Zrotation Xrotation Yrotation
                  End Site
                  {
                    OFFSET 1.78271 -1.18214 1.43049
                  }
                }
              }
              JOINT lIndex1
              {
                OFFSET 7.75947 0.938293 5.60832
                CHANNELS 3 Zrotation Xrotation Yrotation
                JOINT lIndex2
                {
                  OFFSET 2.54057 -0.884171 1.56538
                  CHANNELS 3 Zrotation Xrotation Yrotation
                  End Site
                  {
                    OFFSET 1.62519 -0.234802 1.16502
                  }
                }
              }
              JOINT lMid1
              {
                OFFSET 8.24714 1.18213 3.41376
                CHANNELS 3 Zrotation Xrotation Yrotation
                JOINT lMid2
                {
                  OFFSET 3.10165 -0.590103 1.0647
                  CHANNELS 3 Zrotation Xrotation Yrotation
                  End Site
                  {
                    OFFSET 2.48547 -0.328903 0.83742
                  }
                }
              }
              JOINT lRing1
              {
                OFFSET 8.82822 0.546677 1.51678
                CHANNELS 3 Zrotation Xrotation Yrotation
                JOINT lRing2
                {
                  OFFSET 2.60934 -0.819778 -0.0198488
                  CHANNELS 3 Zrotation Xrotation Yrotation
                  End Site
                  {
                    OFFSET 2.33842 -0.294052 0.168128
                  }
                }
              }
              JOINT lPinky1
              {
                OFFSET 8.27202 -0.0477905 -0.4584
                CHANNELS 3 Zrotation Xrotation Yrotation
                JOINT lPinky2
                {
                  OFFSET 1.82734 -0.647385 -0.700984
                  CHANNELS 3 Zrotation Xrotation Yrotation
                  End Site
                  {
                    OFFSET 1.69225 -0.51767 -0.607171
                  }
                }
              }
            }
          }
        }
      }
    }
  }
  JOINT rButtock
  {
    OFFSET -8.77824 4.35084 1.2192
    CHANNELS 3 Zrotation Xrotation Yrotation
    JOINT rThigh
    {
      OFFSET 0 -1.70687 -2.19456
      CHANNELS 3 Zrotation Xrotation Yrotation
      JOINT rShin
      {
        OFFSET 0 -36.8199 0.73152
        CHANNELS 3 Zrotation Xrotation Yrotation
        JOINT rFoot
        {
          OFFSET 0.73152 -45.1104 -5.12064
          CHANNELS 3 Zrotation Xrotation Yrotation
          End Site
          {
            OFFSET -1.1221 -3.69964 12.103
          }
        }
      }
    }
  }
  JOINT lButtock
  {
    OFFSET 8.77824 4.35084 1.2192
    CHANNELS 3 Zrotation Xrotation Yrotation
    JOINT lThigh
    {
      OFFSET 0 -1.70687 -2.19456
      CHANNELS 3 Zrotation Xrotation Yrotation
      JOINT lShin
      {
        OFFSET 0 -36.8199 0.73152
        CHANNELS 3 Zrotation Xrotation Yrotation
        JOINT lFoot
        {
          OFFSET -0.73152 -45.1104 -5.12064
          CHANNELS 3 Zrotation Xrotation Yrotation
          End Site
          {
            OFFSET 1.1221 -3.69964 12.103
          }
        }
      }
    }
  }
}
MOTION
Frames:	4
Frame Time:	0.03333
0.0 0.0 0.0 0.0 0.0 0.0 0.0 0.0 0.0 0.0 0.0 0.0 0.0 0.0 0.0 0.0 0.0 0.0 0.0 0.0 0.0 0.0 0.0 0.0 0.0 0.0 0.0 0.0 0.0 0.0 0.0 0.0 0.0 0.0 0.0 0.0 0.0 0.0 0.0 0.0 0.0 0.0 0.0 0.0 0.0 0.0 0.0 0.0 0.0 0.0 0.0 0.0 0.0 0.0 0.0 0.0 0.0 0.0 0.0 0.0 0.0 0.0 0.0 0.0 0.0 0.0 0.0 0.0 0.0 0.0 0.0 0.0 0.0 0.0 0.0 0.0 0.0 0.0 0.0 0.0 0.0 0.0 0.0 0.0 0.0 0.0 0.0 0.0 0.0 0.0 0.0 0.0 0.0 0.0 0.0 0.0 0.0 0.0 0.0 0.0 0.0 0.0 0.0 0.0 0.0 0.0 0.0 0.0 0.0 0.0 0.0 0.0 0.0 0.0 0.0 0.0 0.0 0.0 0.0 0.0 0.0 0.0 0.0 0.0 0.0 0.0 0.0 0.0 0.0 0.0 0.0 0.0
-0.5420999999999999 67.5769 0.676 -5.043409 36.541964 -3.471555 -0.907209 10.180616 164.303656 -8.118265 3.538433 -166.883397 -9.08392 15.50842 -13.048451 13.862292 -24.674547 -7.032081 -0.00049 -0.0 0.000484 -0.00049 -0.0 0.000484 -152.949586 10.488648 158.545195 161.814134 -15.756342 -178.067836 -14.357664 -60.305071 72.368001 -8.925984 56.072172 8.135152 -20.781506 18.370119 6.457557 11.967446 -10.732875 4.295229 -146.858393 -8.951159 119.390565 11.228364 -1.735295 -9.941003 -170.476101 -37.278478 145.327607 14.494554 -33.364047 -0.78437 -145.105636 -1.23171 -178.739823 -90.918523 -77.358856 -112.612719 4.154634 11.959734 3.765836 -150.463755 21.66956 -145.833534 0.737768 4.204454 -0.962161 -71.338482 18.804853 -2.319491 93.335997 -38.758728 -93.165221 160.392274 -15.172135 -155.98959 138.724826 20.399973 -81.513757 9.915229 -31.636581 -21.474837 95.602054 39.593239 -80.569369 171.025312 -21.864335 -114.875436 169.78744 -35.300521 -145.366394 -177.964288 -51.784494 -139.922742 -0.001984 2.515982 -0.791181 156.707674 -26.228729 -174.924202 -6.650214 20.248051 -5.93216 -17.054491 51.772589 -9.25549 -179.998483 75.749837 -0.001332 142.762685 16.895316 124.829804 66.12157 -22.314167 134.458009 -48.927194 56.154281 142.023319 0.000253 -0.001961 -0.000186 21.115202 -35.9626 -26.143073 -84.900822 35.004442 8.55081 -171.712924 15.288284 -95.232507
-0.7981999999999999 67.5686 0.9475000000000001 -5.073412 36.672965 -3.124914 0.000378 14.854712 -2.958881 6.426451 -10.014139 1.431813 6.612898 24.740941 101.380003 -35.890189 14.012589 -115.22081 -0.002652 0.0 -0.001557 0.003664 0.0 0.003136 0.831515 -5.313445 -1.141628 -150.28748 -45.382834 151.394175 116.287934 -72.984089 -9.825546 145.72393 -41.498721 137.945617 16.385465 -16.232824 -0.186819 -9.857334 7.063462 -2.251299 -8.163056 11.979425 5.166682 -18.826001 32.145054 13.128795 -160.482338 -6.078594 143.155 4.865816 -4.854041 -0.214176 -145.118369 0.016918 -179.133171 -150.881741 78.080285 165.404941 1.822399 4.954995 1.669327 -145.393379 5.210437 -142.03894 0.878867 4.966251 -1.144473 -71.041572 14.121908 -3.16148 -0.865954 36.601739 -108.388502 21.722758 -60.459954 19.779178 10.038488 9.515198 -2.35274 -1.21725 0.043848 -5.353182 54.406512 41.72504 -43.610447 176.129954 -28.160981 -111.111495 166.740375 -26.014981 -145.183912 -22.131881 -49.653907 -2.143127 0.214897 -7.528861 2.384249 -10.504993 5.707251 -0.621463 111.590994 -40.817668 109.638867 5.419156 -18.681393 8.80823 -0.013274 0.000453 -0.012877 -48.971907 -42.378847 -108.670697 -63.270874 17.821531 -17.94445 -1.850419 21.914725 100.857058 -179.919595 75.749597 -0.063629 -159.830563 35.887536 15.538795 68.553207 67.495826 -49.67352 -137.039634 -4.233887 -18.672083
-1.0035 67.50019999999999 1.1535 -4.899919 36.850721 -2.700144 1.199414 14.38056 -36.569927 9.367186 -5.490519 35.253838 3.831372 31.540557 144.445143 -27.594515 37.569186 -148.634098 0.002454 -0.0 -0.000759 0.002454 -0.0 -0.000759 -158.115241 -25.620057 166.109675 151.255658 51.754455 -155.571447 29.218518 -13.462768 97.820021 -111.106101 82.920385 101.517048 -0.590263 0.580981 0.093084 172.866928 -80.242316 96.099394 -5.985079 9.034902 3.690349 -164.883923 -16.884837 109.959867 154.5685 -76.225198 122.033577 5.603854 -7.730258 -0.632486 -145.053324 -3.636666 -177.984189 -138.444296 -60.586687 -160.814944 3.053524 8.56468 2.78369 50.182199 84.523615 -12.591339 -3.291761 -27.038925 5.293245 -69.457913 15.715124 25.02165 -121.827104 23.15154 -14.664018 35.728065 16.902636 -17.871366 12.69468 11.853641 -3.229776 147.834911 -52.787952 -111.320499 143.17655 -2.567031 -117.575363 172.941993 -34.402025 -117.431503 157.707142 2.152916 -141.683211 -19.725163 -44.995138 -0.923686 0.001701 -0.232352 0.072366 -3.474706 44.26865 -8.64314 -1.063538 2.839458 -0.977355 141.351507 -5.841725 138.627284 -0.000281 0.001273 -8.6e-05 -50.083813 -41.790919 -85.452593 -57.607808 40.9426 -44.719814 93.895634 -45.935883 -156.221636 -0.000181 -0.000355 -0.000188 20.436258 -36.979069 62.789713 86.502074 42.836705 -9.693791 107.141824 -69.760591 31.819805
